<svg width="367" height="367" viewBox="0 0 367 367" fill="none" xmlns="http://www.w3.org/2000/svg">
<path d="M228.55 183.06C228.55 208.35 208.05 228.85 182.76 228.85C157.46 228.85 136.96 208.35 136.96 183.06C136.96 157.77 157.46 137.26 182.76 137.26C208.05 137.26 228.55 157.77 228.55 183.06Z" fill="#464646"/>
<path d="M271.58 255.89C281.06 277.77 294.68 297.44 311.45 313.89C292.7 332.3 270.01 346.7 244.76 355.71C225.51 362.59 204.77 366.33 183.16 366.33C82 366.33 0 284.32 0 183.16C0 82.01 82 0 183.16 0C233.12 0 278.41 20 311.45 52.44C294.67 68.89 281.05 88.56 271.57 110.44C250.57 84.94 218.76 68.69 183.16 68.69C119.94 68.69 68.68 119.94 68.68 183.16C68.68 246.39 119.94 297.64 183.16 297.64C199.58 297.64 215.19 294.18 229.3 287.95C245.8 280.69 260.25 269.63 271.58 255.89Z" fill="#464646"/>
<path d="M366.32 183.16C366.32 183.9 366.32 184.63 366.31 185.37C358.9 183.86 351.23 183.07 343.37 183.07C326.96 183.07 311.35 186.52 297.24 192.75C283.12 198.97 270.51 207.96 260.09 219.03C257.78 207.43 256.57 195.44 256.57 183.16C256.57 157.32 261.92 132.73 271.57 110.44C281.05 88.5599 294.67 68.8899 311.45 52.4399C345.32 85.6799 366.32 131.97 366.32 183.16Z" fill="#F79F7C"/>
</svg>
