<svg width="1697" height="367" viewBox="0 0 1697 367" fill="none" xmlns="http://www.w3.org/2000/svg">
<path d="M228.55 183.06C228.55 208.35 208.05 228.85 182.76 228.85C157.46 228.85 136.96 208.35 136.96 183.06C136.96 157.77 157.46 137.26 182.76 137.26C208.05 137.26 228.55 157.77 228.55 183.06Z" fill="#464646"/>
<path d="M271.58 255.89C281.06 277.77 294.68 297.44 311.45 313.89C292.7 332.3 270.01 346.7 244.76 355.71C225.51 362.59 204.77 366.33 183.16 366.33C82 366.33 0 284.32 0 183.16C0 82.01 82 0 183.16 0C233.12 0 278.41 20 311.45 52.44C294.67 68.89 281.05 88.56 271.57 110.44C250.57 84.94 218.76 68.69 183.16 68.69C119.94 68.69 68.68 119.94 68.68 183.16C68.68 246.39 119.94 297.64 183.16 297.64C199.58 297.64 215.19 294.18 229.3 287.95C245.8 280.69 260.25 269.63 271.58 255.89Z" fill="#464646"/>
<path d="M366.32 183.16C366.32 183.9 366.32 184.63 366.31 185.37C358.9 183.86 351.23 183.07 343.37 183.07C326.96 183.07 311.35 186.52 297.24 192.75C283.12 198.97 270.51 207.96 260.09 219.03C257.78 207.43 256.57 195.44 256.57 183.16C256.57 157.32 261.92 132.73 271.57 110.44C281.05 88.5599 294.67 68.8899 311.45 52.4399C345.32 85.6799 366.32 131.97 366.32 183.16Z" fill="#F79F7C"/>
<path d="M505.48 97.5796C533.91 97.5796 556.92 106.16 574.52 123.32C592.12 140.48 600.92 160.45 600.92 183.22C600.92 206.31 592 226.34 574.16 243.3C556.32 260.26 533.43 268.74 505.48 268.74C477.21 268.74 454.2 260.3 436.44 243.42C418.68 226.54 409.8 206.47 409.8 183.22C409.8 160.37 418.62 140.38 436.26 123.26C453.89 106.14 476.97 97.5796 505.48 97.5796ZM505.48 234.11C521.25 234.11 533.95 229.43 543.58 220.07C553.21 210.71 558.03 198.43 558.03 183.22C558.03 167.93 553.21 155.63 543.58 146.31C533.94 136.99 521.24 132.33 505.48 132.33C489.63 132.33 476.87 136.99 467.2 146.31C457.52 155.63 452.69 167.93 452.69 183.22C452.69 198.43 457.53 210.71 467.2 220.07C476.87 229.43 489.63 234.11 505.48 234.11Z" fill="#464646"/>
<path d="M720.78 161.6L774.41 99.73H810.54V266.6H768.97V162.44L723.89 214.76H717.65L672.58 162.44V266.6H631.01V99.73H667.1L720.78 161.6Z" fill="#464646"/>
<path d="M937.22 161.6L990.85 99.73H1026.98V266.6H985.41V162.44L940.33 214.76H934.09L889.02 162.44V266.6H847.45V99.73H883.54L937.22 161.6Z" fill="#464646"/>
<path d="M1187.41 236.02V266.6H1064.38V99.73H1185.74V130.31H1105.95V165.31H1182.04V195.89H1105.95V236.02H1187.41Z" fill="#464646"/>
<path d="M1219.18 99.73H1293.72C1309.89 99.73 1323.02 104.41 1333.14 113.76C1343.25 123.11 1348.31 134.43 1348.31 147.72C1348.31 166.1 1338.75 179.71 1319.64 188.54C1328.02 192.35 1335.98 202.61 1343.53 219.33C1351.08 236.04 1358.36 251.8 1365.39 266.6H1319.77C1317.05 261.1 1312.3 250.64 1305.54 235.18C1298.77 219.73 1292.98 209.82 1288.16 205.44C1283.34 201.06 1278.19 198.87 1272.69 198.87H1260.74V266.6H1219.17V99.73H1219.18ZM1260.75 130.31V168.29H1282.73C1289.74 168.29 1295.29 166.64 1299.39 163.33C1303.49 160.03 1305.54 155.31 1305.54 149.18C1305.54 136.6 1297.62 130.31 1281.77 130.31H1260.75Z" fill="#464646"/>
<path d="M1540.26 215.71V252.14C1519.4 263.21 1497.54 268.74 1474.68 268.74C1445.06 268.74 1421.47 260.56 1403.91 244.19C1386.35 227.82 1377.57 207.66 1377.57 183.69C1377.57 159.72 1386.83 139.37 1405.34 122.65C1423.85 105.93 1448.04 97.5698 1477.91 97.5698C1501.72 97.5698 1521.87 102.47 1538.35 112.26V149.41C1518.12 138.02 1498.97 132.33 1480.89 132.33C1463.13 132.33 1448.62 137.09 1437.35 146.6C1426.08 156.12 1420.45 168.24 1420.45 182.97C1420.45 197.78 1426 210.01 1437.11 219.64C1448.22 229.28 1462.45 234.09 1479.81 234.09C1488.41 234.09 1496.69 232.96 1504.65 230.69C1512.63 228.44 1524.5 223.44 1540.26 215.71Z" fill="#464646"/>
<path d="M1696.86 236.02V266.6H1573.83V99.73H1695.19V130.31H1615.4V165.31H1691.49V195.89H1615.4V236.02H1696.86Z" fill="#464646"/>
</svg>
